<svg width="60" height="60" viewBox="0 0 60 60" fill="none" xmlns="http://www.w3.org/2000/svg">
<g id="Frame" clip-path="url(#clip0_48_4)">
<path id="Vector" fill-rule="evenodd" clip-rule="evenodd" d="M24.6685 29.8426C27.9446 33.7377 29.697 35.7014 33.5372 36.1391C37.4995 36.5861 41.703 35.197 44.1666 31.7332L44.1704 31.7277C42.8605 28.2997 39.8508 26.1131 36.4621 25.3167C35.9779 25.2029 35.486 25.1175 34.9904 25.0609L34.9794 25.0597C31.6482 24.6841 29.5447 25.7755 26.3085 28.0636C28.9956 25.2333 32.2113 22.2381 36.0616 19.1141C36.3543 18.8761 36.6462 18.607 36.8274 18.3274C41.0085 19.8979 43.3851 20.5714 46.6157 19.3105C50.1733 17.9155 52.9874 14.865 53.2713 10.8505C50.0021 8.22955 45.6938 7.96364 42.1318 9.35592C38.7821 10.6695 37.6691 12.8341 35.8267 17.0134C35.4837 17.0986 35.1281 17.3226 34.7943 17.5773C31.0552 20.4176 27.8423 23.1093 25.0801 25.6456C27.8486 20.7978 29.2014 18.2757 27.9557 14.4655C26.6738 10.5477 23.2918 7.23137 18.4508 6.46637C14.8904 9.61637 14.0694 14.1273 15.3513 18.0436C15.3898 18.1612 15.4296 18.2764 15.4707 18.3896C16.472 21.1414 18.2754 22.5916 21.3796 24.2696C22.3345 24.786 23.412 25.3237 24.6265 25.9268L24.7233 25.9747C21.6733 28.8004 19.1846 31.4309 17.1513 33.8572C17.4784 30.5726 17.4717 28.7358 15.7143 26.7395C13.7547 24.5141 10.6011 23.2009 7.23377 23.9155C5.8245 26.8514 6.58841 29.9891 8.54792 32.2173C8.86724 32.5797 9.19226 32.8883 9.53148 33.1529C11.0123 34.3077 12.7634 34.6212 15.4892 34.8955C15.7317 34.9197 15.9819 34.9439 16.2404 34.9681C9.96911 42.7881 8.50678 48.3548 8.0167 51.3341C7.88499 52.1318 9.02499 53.1409 9.87963 53.265C10.7357 53.385 12.4801 52.7277 12.6133 51.93C12.9266 50.0194 13.6845 46.7014 15.9048 42.3239C19.3577 46.0448 21.0907 47.9035 24.8167 48.1582C28.5513 48.4077 32.4162 46.9214 34.5513 43.5695C32.9577 39.9655 29.3606 37.9759 25.6274 37.7236C21.9055 37.4748 19.9058 39.0788 15.9243 42.2857C17.7158 38.7618 20.4544 34.5539 24.6685 29.8426Z" fill="#D9D9D9"/>
<g id="Mask group">
<mask id="mask0_48_4" style="mask-type:luminance" maskUnits="userSpaceOnUse" x="-1" y="1" width="61" height="59">
<g id="Group">
<path id="Vector_2" d="M59.1936 1.01184H-0.806396V59.6482H59.1936V1.01184Z" fill="white"/>
<path id="Vector_3" fill-rule="evenodd" clip-rule="evenodd" d="M24.6685 29.8426C27.9446 33.7377 29.697 35.7014 33.5372 36.1391C37.4995 36.5861 41.703 35.197 44.1666 31.7332L44.1704 31.7277C42.8605 28.2997 39.8508 26.1131 36.4621 25.3167C35.9779 25.2029 35.486 25.1175 34.9904 25.0609L34.9794 25.0597C31.6482 24.6841 29.5447 25.7755 26.3085 28.0636C28.9956 25.2333 32.2113 22.2381 36.0616 19.1141C36.3543 18.8761 36.6462 18.607 36.8274 18.3274C41.0085 19.8979 43.3851 20.5714 46.6157 19.3105C50.1733 17.9155 52.9874 14.865 53.2713 10.8505C50.0021 8.22955 45.6938 7.96364 42.1318 9.35592C38.7821 10.6695 37.6691 12.8341 35.8267 17.0134C35.4837 17.0986 35.1281 17.3226 34.7943 17.5773C31.0552 20.4176 27.8423 23.1093 25.0801 25.6456C27.8486 20.7978 29.2014 18.2757 27.9557 14.4655C26.6738 10.5477 23.2918 7.23137 18.4508 6.46637C14.8904 9.61637 14.0694 14.1273 15.3513 18.0436C15.3898 18.1612 15.4296 18.2764 15.4707 18.3896C16.472 21.1414 18.2754 22.5916 21.3796 24.2696C22.3345 24.786 23.412 25.3237 24.6265 25.9268L24.7233 25.9747C21.6733 28.8004 19.1846 31.4309 17.1513 33.8572C17.4784 30.5726 17.4717 28.7358 15.7143 26.7395C13.7547 24.5141 10.6011 23.2009 7.23377 23.9155C5.8245 26.8514 6.58841 29.9891 8.54792 32.2173C8.86724 32.5797 9.19226 32.8883 9.53148 33.1529C11.0123 34.3077 12.7634 34.6212 15.4892 34.8955C15.7317 34.9197 15.9819 34.9439 16.2404 34.9681C9.96911 42.7881 8.50678 48.3548 8.0167 51.3341C7.88499 52.1318 9.02499 53.1409 9.87963 53.265C10.7357 53.385 12.4801 52.7277 12.6133 51.93C12.9266 50.0194 13.6845 46.7014 15.9048 42.3239C19.3577 46.0448 21.0907 47.9035 24.8167 48.1582C28.5513 48.4077 32.4162 46.9214 34.5513 43.5695C32.9577 39.9655 29.3606 37.9759 25.6274 37.7236C21.9055 37.4748 19.9058 39.0788 15.9243 42.2857C17.7158 38.7618 20.4544 34.5539 24.6685 29.8426Z" fill="black"/>
</g>
</mask>
<g mask="url(#mask0_48_4)">
<path id="Vector_4" d="M24.6684 29.8427L29.2757 26.478C28.1851 25.1813 26.5242 24.4135 24.7565 24.3887C22.9888 24.364 21.3037 25.0849 20.1719 26.3504L24.6684 29.8427ZM33.5371 36.1391L32.8263 41.5533L32.8335 41.5541L33.5371 36.1391ZM44.1665 31.7332L49.0458 34.7464L49.0467 34.7452L44.1665 31.7332ZM44.1703 31.7278L49.0505 34.7399C50.0677 33.3088 50.3027 31.515 49.6847 29.898L44.1703 31.7278ZM34.9903 25.0609L35.7021 19.6469L35.6961 19.6462L34.9903 25.0609ZM34.9793 25.0597L35.6851 19.645L35.6823 19.6446L34.9793 25.0597ZM26.3084 28.0637L21.9242 24.4495C19.9302 26.5499 19.9701 29.7169 22.0167 31.773C24.0633 33.829 27.4495 34.104 29.8468 32.4089L26.3084 28.0637ZM36.0615 19.1141L39.9055 23.2278L39.9091 23.2248L36.0615 19.1141ZM36.8273 18.3274L39.0159 13.2685C36.3519 12.2678 33.3022 13.216 31.817 15.5069L36.8273 18.3274ZM46.6157 19.3105L48.8774 24.3415L48.8862 24.3381L46.6157 19.3105ZM53.2713 10.8505L59.1122 11.2091C59.2332 9.49823 58.4838 7.83387 57.089 6.71562L53.2713 10.8505ZM42.1318 9.35593L39.8674 4.32599L39.8613 4.32839L42.1318 9.35593ZM35.8266 17.0134L37.336 22.2835C39.1022 21.8442 40.5467 20.6616 41.2413 19.086L35.8266 17.0134ZM34.7942 17.5773L38.493 21.805L38.5025 21.7976L34.7942 17.5773ZM25.0801 25.6457L19.9124 23.0834C18.5544 25.4614 19.2628 28.4073 21.5802 30.0179C23.8975 31.6286 27.1296 31.4216 29.1887 29.5308L25.0801 25.6457ZM27.9557 14.4655L33.5553 12.876L33.5548 12.8746L27.9557 14.4655ZM18.4508 6.46639L19.4295 1.08863C17.6127 0.80151 15.7568 1.32841 14.4203 2.51075L18.4508 6.46639ZM24.6264 25.9268L21.8731 30.7403C23.6873 31.6414 25.876 31.5896 27.6387 30.6037C29.4015 29.6179 30.4801 27.8426 30.4801 25.9268H24.6264ZM24.6264 25.9268L27.3798 21.1132C25.5655 20.2121 23.3769 20.2639 21.6141 21.2497C19.8513 22.2356 18.7727 24.0109 18.7727 25.9267L24.6264 25.9268ZM24.7233 25.9747L28.8504 29.8428C30.1678 28.6223 30.7853 26.8916 30.5143 25.179C30.2433 23.4664 29.116 21.9754 27.4765 21.1612L24.7233 25.9747ZM17.1513 33.8572L11.3227 33.3533C11.0826 35.7643 12.577 38.0342 14.9923 38.9272C17.4077 39.8203 20.1658 39.1228 21.765 37.2143L17.1513 33.8572ZM7.23371 23.9155L5.93395 18.5972C4.13947 18.9779 2.64166 20.1229 1.89021 21.6884L7.23371 23.9155ZM8.54786 32.2173L4.02021 35.6745L4.02356 35.6783L8.54786 32.2173ZM16.2403 34.9682L20.9294 38.2334C22.1922 36.6587 22.448 34.5727 21.599 32.7731C20.7501 30.9735 18.9276 29.7389 16.8287 29.5413L16.2403 34.9682ZM8.01664 51.3341L13.8022 52.1635L13.8027 52.1606L8.01664 51.3341ZM9.87956 53.265L8.97832 58.6545C8.98848 58.656 8.99863 58.6575 9.0088 58.6589L9.87956 53.265ZM12.6132 51.93L18.3974 52.7684L18.3997 52.7539L12.6132 51.93ZM15.9047 42.3239L20.3326 38.7561C19.0378 37.3608 17.0739 36.6698 15.1126 36.9195C13.1513 37.1691 11.4582 38.3254 10.6124 39.9932L15.9047 42.3239ZM24.8166 48.1582L24.3883 53.5982L24.398 53.5988L24.8166 48.1582ZM34.5513 43.5696L39.585 46.3537C40.5246 44.8787 40.6648 43.0776 39.9636 41.4917L34.5513 43.5696ZM25.6274 37.7237L26.0507 32.2834L26.0463 32.2832L25.6274 37.7237ZM15.9242 42.2857L10.6341 39.9503C9.44925 42.2808 10.1778 45.066 12.3805 46.6271C14.5832 48.1882 17.6582 48.0986 19.7521 46.4123L15.9242 42.2857ZM20.0611 33.2073C23.1454 36.8744 26.2666 40.8056 32.8263 41.5533L34.2479 30.7249C33.4631 30.6355 33.117 30.4691 32.6421 30.0997C31.8819 29.5086 31.0133 28.5438 29.2757 26.478L20.0611 33.2073ZM32.8335 41.5541C38.6622 42.2117 45.1842 40.176 49.0458 34.7464L39.287 28.72C38.2218 30.2178 36.3368 30.9606 34.2407 30.7241L32.8335 41.5541ZM49.0467 34.7452L49.0505 34.7399L39.2901 28.7156L39.287 28.72L49.0467 34.7452ZM49.6847 29.898C47.6406 24.5487 42.9393 21.2136 37.8934 20.0278L35.0305 30.6056C36.7622 31.0127 38.08 32.0507 38.6559 33.5575L49.6847 29.898ZM37.8934 20.0278C37.1715 19.8581 36.4392 19.731 35.7021 19.6469L34.2785 30.475C34.5328 30.504 34.7842 30.5478 35.0305 30.6056L37.8934 20.0278ZM35.6961 19.6462L35.6851 19.645L34.2734 30.4744L34.2843 30.4757L35.6961 19.6462ZM35.6823 19.6446C33.0798 19.3512 30.7135 19.6319 28.3973 20.5122C26.2858 21.3149 24.4302 22.5446 22.7701 23.7184L29.8468 32.4089C31.4229 31.2945 32.2372 30.8346 32.8192 30.6134C33.1966 30.4699 33.5477 30.3926 34.2763 30.4747L35.6823 19.6446ZM32.2176 15.0004C28.1869 18.2707 24.7891 21.4319 21.9242 24.4495L30.6927 31.6778C33.202 29.0347 36.2355 26.2054 39.9055 23.2278L32.2176 15.0004ZM31.817 15.5069C31.9142 15.357 32.0026 15.2444 32.0654 15.1699C32.1286 15.0947 32.1789 15.0426 32.2072 15.0145C32.258 14.9636 32.2713 14.9568 32.2139 15.0034L39.9091 23.2248C40.2942 22.912 41.1646 22.1861 41.8376 21.148L31.817 15.5069ZM34.6388 23.3864C36.6785 24.1526 38.9257 24.964 41.2315 25.278C43.8292 25.6318 46.3041 25.3459 48.8774 24.3415L44.354 14.2795C43.6967 14.5361 43.3681 14.544 42.9245 14.4836C42.189 14.3834 41.1574 14.0729 39.0159 13.2685L34.6388 23.3864ZM48.8862 24.3381C54.183 22.261 58.6622 17.5736 59.1122 11.2091L47.4303 10.4918C47.3125 12.1564 46.1635 13.5699 44.3452 14.2829L48.8862 24.3381ZM57.089 6.71562C51.902 2.55728 45.171 2.25299 39.8674 4.32599L44.3961 14.3858C46.2164 13.6743 48.1021 13.9019 49.4535 14.9853L57.089 6.71562ZM39.8613 4.32839C34.0503 6.607 32.1968 10.8921 30.412 14.9408L41.2413 19.086C42.2049 16.8998 42.7146 15.8932 43.2009 15.2492C43.4941 14.8611 43.7364 14.6445 44.4022 14.3835L39.8613 4.32839ZM38.5025 21.7976C38.546 21.7646 38.4892 21.8123 38.3519 21.8903C38.229 21.9602 37.8778 22.1487 37.336 22.2835L34.3173 11.7433C32.6987 12.1458 31.5321 13.0164 31.0859 13.3569L38.5025 21.7976ZM29.1887 29.5308C31.8096 27.1241 34.8845 24.5463 38.493 21.805L31.0956 13.3496C27.226 16.2889 23.8748 19.0943 20.9712 21.7605L29.1887 29.5308ZM30.2475 28.2081C32.8606 23.6324 35.602 19.1366 33.5553 12.876L22.3561 16.0551C22.6439 16.9356 22.6186 17.4427 22.3975 18.159C22.0723 19.2128 21.3754 20.5214 19.9124 23.0834L30.2475 28.2081ZM33.5548 12.8746C31.7207 7.26939 26.7574 2.24661 19.4295 1.08863L17.4721 11.8441C19.8261 12.2162 21.6262 13.8248 22.3561 16.0551L33.5548 12.8746ZM14.4203 2.51075C9.02938 7.28016 7.91781 14.0307 9.75226 19.635L20.9504 16.453C20.2209 14.2245 20.7513 11.9526 22.4813 10.422L14.4203 2.51075ZM9.75226 19.635C9.80783 19.8049 9.86588 19.9731 9.92696 20.1409L21.0144 16.6382C20.9932 16.5799 20.9718 16.5183 20.9504 16.453L9.75226 19.635ZM9.92696 20.1409C11.5939 24.7222 14.8338 27.0373 18.4422 28.9877L24.3179 19.5521C21.7179 18.1466 21.3501 17.5608 21.0144 16.6382L9.92696 20.1409ZM18.4422 28.9877C19.5039 29.5619 20.6742 30.1448 21.8731 30.7403L27.3798 21.1132C26.1498 20.5023 25.1658 20.0107 24.3179 19.5521L18.4422 28.9877ZM21.8731 30.7403L21.9699 30.7882L27.4765 21.1612L27.3798 21.1132L21.8731 30.7403ZM21.765 37.2143C23.6355 34.9822 25.9593 32.5214 28.8504 29.8428L20.596 22.1066C17.3873 25.0793 14.7337 27.8797 12.5377 30.5002L21.765 37.2143ZM22.9799 34.3612C23.1399 32.7555 23.3024 30.8606 23.0032 29.0047C22.6616 26.8868 21.7704 25.0185 20.2398 23.28L11.1885 30.1991C11.3434 30.375 11.3815 30.4567 11.3849 30.4638C11.3863 30.4667 11.4056 30.5009 11.4257 30.6257C11.4875 31.0084 11.4899 31.6743 11.3227 33.3533L22.9799 34.3612ZM20.2398 23.28C17.0807 19.6923 11.7656 17.3597 5.93395 18.5972L8.53347 29.2338C9.43646 29.0422 10.4285 29.3359 11.1885 30.1991L20.2398 23.28ZM1.89021 21.6884C-0.550704 26.7735 0.863048 32.0845 4.02021 35.6745L13.0755 28.7601C12.3136 27.8938 12.1996 26.9293 12.5772 26.1426L1.89021 21.6884ZM4.02356 35.6783C4.54644 36.2718 5.12454 36.829 5.77463 37.336L13.2882 28.9699C13.2599 28.9478 13.1879 28.8876 13.0722 28.7563L4.02356 35.6783ZM5.77463 37.336C8.75685 39.6617 12.1847 40.0493 14.8609 40.3185L16.1172 29.4724C14.7824 29.3381 14.0966 29.2285 13.6543 29.1104C13.3293 29.0238 13.2923 28.9731 13.2882 28.9699L5.77463 37.336ZM14.8609 40.3185C15.1212 40.3447 15.3858 40.3701 15.6519 40.3952L16.8287 29.5413C16.5779 29.5177 16.3419 29.4949 16.1172 29.4724L14.8609 40.3185ZM13.8027 52.1606C14.1554 50.0167 15.2639 45.2977 20.9294 38.2334L11.5512 31.7031C4.67414 40.2784 2.85806 46.6931 2.23056 50.5076L13.8027 52.1606ZM10.7808 47.8755C11.5029 47.9804 11.9805 48.2128 12.1985 48.3333C12.4471 48.4709 12.6472 48.624 12.8184 48.7918C12.9799 48.9498 13.2382 49.2408 13.4619 49.6998C13.6781 50.1434 13.9909 51.0209 13.8022 52.1635L2.23104 50.5048C1.74828 53.4288 3.5341 55.5255 4.33805 56.3126C5.27486 57.2298 6.87387 58.3489 8.97832 58.6545L10.7808 47.8755ZM6.82912 51.0917C7.07233 49.6348 7.92503 48.7954 8.2341 48.5238C8.59793 48.204 8.89501 48.064 8.99538 48.0194C9.11863 47.9646 9.24964 47.9204 9.42056 47.8862C9.52435 47.8654 10.0162 47.7682 10.7503 47.8712L9.0088 58.6589C11.0514 58.9452 12.9397 58.3533 14.0396 57.8639C14.6998 57.5703 15.5114 57.1238 16.2665 56.4603C16.9669 55.8448 18.0876 54.6242 18.3974 52.7684L6.82912 51.0917ZM10.6124 39.9932C8.10965 44.9276 7.21011 48.7683 6.82673 51.1061L18.3997 52.7539C18.6429 51.2704 19.2592 48.4753 21.197 44.6546L10.6124 39.9932ZM11.4769 45.8916C14.6275 49.2868 17.873 53.1528 24.3883 53.5982L25.245 42.7183C24.5664 42.6719 24.2938 42.5545 23.8458 42.2308C23.0768 41.6749 22.1946 40.7627 20.3326 38.7561L11.4769 45.8916ZM24.398 53.5988C30.0164 53.9743 36.1606 51.7296 39.585 46.3537L29.5176 40.7854C28.6717 42.1132 27.0861 42.8413 25.2353 42.7176L24.398 53.5988ZM39.9636 41.4917C37.4067 35.7093 31.6689 32.6631 26.0507 32.2834L25.204 43.1639C27.0522 43.2888 28.5085 44.2217 29.139 45.6475L39.9636 41.4917ZM26.0463 32.2832C19.5356 31.8477 15.7287 35.2334 12.0963 38.1589L19.7521 46.4123C21.8998 44.6824 22.9101 43.9016 23.7542 43.4568C24.245 43.1982 24.5316 43.1189 25.2084 43.1642L26.0463 32.2832ZM20.1719 26.3504C15.6548 31.4002 12.6453 35.9946 10.6341 39.9503L21.2141 44.6209C22.7863 41.5289 25.2538 37.7076 29.165 33.3349L20.1719 26.3504Z" fill="white"/>
</g>
</g>
<path id="Vector_5" d="M33.5372 36.1391C29.5772 35.6877 27.8372 33.6136 24.3572 29.4723C28.8045 26.2323 31.0289 24.6109 34.9904 25.0609C38.9562 25.5136 42.6733 27.81 44.1704 31.7277C41.7074 35.1955 37.5016 36.5864 33.5372 36.1391ZM24.8167 48.1582C21.0865 47.9032 19.3538 46.0405 15.8928 42.3109C19.8952 39.0873 21.8957 37.4741 25.6274 37.7236C29.3606 37.9759 32.9577 39.9655 34.5513 43.5695C32.4162 46.9214 28.5513 48.4077 24.8167 48.1582ZM15.7143 26.7395C17.6723 28.9636 17.4572 30.99 17.0284 35.0414C12.6821 34.6405 10.5074 34.4414 8.54792 32.2173C6.58841 29.9891 5.8245 26.8514 7.23377 23.9155C10.6011 23.2009 13.7547 24.5141 15.7143 26.7395ZM46.6157 19.3105C43.0523 20.7014 40.5279 19.7386 35.4747 17.8146C37.5396 13.1059 38.5743 10.7509 42.1318 9.35592C45.6938 7.96364 50.0021 8.22955 53.2713 10.8505C52.9874 14.865 50.1733 17.9155 46.6157 19.3105ZM27.9557 14.4655C29.2347 18.3777 27.7743 20.9318 24.8547 26.04C19.3743 23.3182 16.6318 21.9573 15.3513 18.0436C14.0694 14.1273 14.8904 9.61637 18.4508 6.46637C23.2918 7.23137 26.6738 10.5477 27.9557 14.4655Z" fill="#77B255"/>
<path id="Vector_6" d="M15.3512 18.0437C16.6126 21.9 19.3053 23.2841 24.6263 25.9268V25.92C24.5239 22.4823 20.6268 11.0891 18.3819 6.53729C14.8858 9.68457 14.078 14.1559 15.3512 18.0437ZM7.16777 24.0832C5.86533 26.9714 6.62484 30.0314 8.54777 32.2173C10.5087 34.4427 12.6834 34.6405 17.0283 35.0414C15.5692 32.4 9.84143 26.3305 7.16777 24.0832Z" fill="#A6D388"/>
<path id="Vector_7" d="M34.9904 25.0609C31.2396 24.6355 29.024 26.0837 25.0274 28.9868C27.5826 29.13 37.885 30.0028 44.1396 31.7646C44.1484 31.7509 44.1616 31.7414 44.1704 31.7278C42.6733 27.81 38.9562 25.5137 34.9904 25.0609ZM34.5455 43.5587C32.9489 39.9628 29.3577 37.9759 25.6274 37.7237C21.9689 37.4796 19.964 39.0341 16.1182 42.1309C20.1674 41.715 27.6865 40.9446 34.5455 43.5587Z" fill="#5C913B"/>
<path id="Vector_8" d="M35.738 17.9141C40.6068 19.7673 43.118 20.6741 46.6141 19.3105C50.1541 17.9223 52.9536 14.8936 53.261 10.9105C47.5215 11.9482 38.0546 16.5696 35.738 17.9141Z" fill="#A6D388"/>
<path id="Vector_9" d="M9.87949 53.265C9.02485 53.1409 7.88485 52.1318 8.01656 51.3341C8.81559 46.4768 12.199 34.7414 34.7941 17.5773C35.4644 17.0659 36.2224 16.6786 36.7902 17.2882C37.3624 17.8977 36.7141 18.5836 36.0614 19.1141C16.6156 34.8914 13.358 47.3877 12.6131 51.93C12.48 52.7277 10.7356 53.385 9.87949 53.265Z" fill="#A06253"/>
</g>
<defs>
<clipPath id="clip0_48_4">
<rect width="60" height="60" fill="white"/>
</clipPath>
</defs>
</svg>
